# xmcd
#
# Track frame offsets: 
#        150
#        45744
#        88379
#        121332
#        169441
#        200226
#
# Disc length: 3263 seconds
#
# Revision: 1
# Processed by: cddbd v1.5PL3 Copyright (c) Steve Scherf et al.
# Submitted via: ExactAudioCopy v0.95a3
#
DISCID=5a0cbd06
DTITLE=Er. J. Orchestra - Gabrielius
DYEAR=1998
DGENRE=Jazz
TTITLE0=The Tea Ceremony Kiev-Paris
TTITLE1=Gabrielius
TTITLE2=A Letter To Jana
TTITLE3=The Bamboo Forest Temple
TTITLE4=Chanson d'Automne
TTITLE5=Syringa
EXTD=YEAR: 1998
EXTT0=
EXTT1=
EXTT2=
EXTT3=
EXTT4=
EXTT5=
PLAYORDER=
